# xmcd
#
# Track frame offsets: 
#        183
#        14098
#        26638
#        43943
#        54558
#        68885
#        79593
#        101485
#        113833
#        128020
#        136833
#        149348
#
# Disc length: 2207 seconds
#
# Revision: 5
# Processed by: cddbd v1.5.2PL0 Copyright (c) Steve Scherf et al.
# Submitted via: ExactAudioCopy v0.95b4
#
DISCID=a6089d0c
DTITLE=Jesse Fuller - San Francisco Bay Blues
DYEAR=1963
DGENRE=Blues
TTITLE0=San Francisco Bay Blues
TTITLE1=Jesse's New Midnight Special
TTITLE2=Morning Blues
TTITLE3=Little Black Train
TTITLE4=Midnight Cold
TTITLE5=Whoa Mule
TTITLE6=John Henry
TTITLE7=I Got A Mind To Ramble
TTITLE8=Crazy About A Woman
TTITLE9=Where Could I Go But To The Lord
TTITLE10=Stealin' Back To My Old Time Used To Be
TTITLE11=Brownskin Girl (I've Got My Eye On You)
EXTD=YEAR: 1963
EXTT0=
EXTT1=
EXTT2=
EXTT3=
EXTT4=
EXTT5=
EXTT6=
EXTT7=
EXTT8=
EXTT9=
EXTT10=
EXTT11=
PLAYORDER=
